PathFileType	4	(X/Y/Z)	pose_F01_0-76.trc
DataRate	CameraRate	NumFrames	NumMarkers	Units	OrigDataRate	OrigDataStartFrame	OrigNumFrames
30	30	6	21	m	30	25	76
Frame#	Time	CHip			RHip			RKnee			RAnkle			RBigToe			RSmallToe			RHeel			LHip			LKnee			LAnkle			LBigToe			LSmallToe			LHeel			Neck			Nose			RShoulder			RElbow			RWrist			LShoulder			LElbow			LWrist			
		X1	Y1	Z1	X2	Y2	Z2	X3	Y3	Z3	X4	Y4	Z4	X5	Y5	Z5	X6	Y6	Z6	X7	Y7	Z7	X8	Y8	Z8	X9	Y9	Z9	X10	Y10	Z10	X11	Y11	Z11	X12	Y12	Z12	X13	Y13	Z13	X14	Y14	Z14	X15	Y15	Z15	X16	Y16	Z16	X17	Y17	Z17	X18	Y18	Z18	X19	Y19	Z19	X20	Y20	Z20	X21	Y21	Z21	
25	0.8333333333333334	-0.2604364706131052	1.8755741982132421	-0.5794377041758989	-0.2783883884135766	1.8745376248469483	-0.5126829813498102	-0.2633389104065227	1.7020348459788157	-0.36552992140090423													-0.24126322288444527	1.8769691948730192	-0.6376880376625595	-0.23925891562510268	1.712716717824092	-0.6205613146776944	-0.2420306208379053	1.5661289069255355	-0.6008301393069926	-0.24972405109157775	1.5144769029588947	-0.6483892446824024	-0.23579143773288863	1.5239300304987333	-0.6633520375825369	-0.18412138578234377	1.6087663315614742	-0.5207462805266488	-0.2582157243850494	2.0586652670310337	-0.57627585358654	-0.2683900632428907	2.1336775511806825	-0.633264846787051	-0.28479722531099344	2.055723745260199	-0.48136201978049625	-0.2910128832274115	1.954236858234436	-0.45188895246951805	-0.30108996766839724	1.8711828595956905	-0.4482967340258826	-0.22644076135694846	2.0604670267487695	-0.6731221156661394	-1.3531701772691511	1.8691269794277467	0.49453403520642275	-0.21899576401173157	1.891752002832433	-0.6988506782505279
26	0.8666666666666667	-0.26549715377085403	1.881398468746024	-0.5787272234564665	-0.28146722193195917	1.880215626877796	-0.5143727642081661	-0.2633389104065227	1.7020348459788157	-0.36552992140090423													-0.24441553083047232	1.8855939016329366	-0.6391890622691841	-0.2414423692476716	1.7170666530553471	-0.6261476520429223	-0.2420306208379053	1.5661289069255355	-0.6008301393069926	-0.2512237630684196	1.514538322380935	-0.6553261179810325	-0.23961296263671497	1.5224255073200055	-0.6676099547441113	-0.18412138578234377	1.6087663315614742	-0.5207462805266488	-0.2581732898118919	2.060778589621699	-0.5766226312429314	-0.26827018366965927	2.136627736158885	-0.6335820618379449	-0.28470169500489506	2.0583516573075613	-0.4817639128253844	-0.29085271946525126	1.9583879074135184	-0.45213856280440623	-0.30333806456745227	1.8711381660961055	-0.44624988219768025	-0.22442994282162376	2.0632663437893535	-0.6759516442781506	-1.339973022857223	1.8718012552751566	0.4754458508986635	-0.22117637100548546	1.898395732793404	-0.709005128260843
27	0.9	-0.26434791286231446	1.887938135780067	-0.576169026210972	-0.27817639370164643	1.8861589019394718	-0.5054018007733605	-0.2633389104065227	1.7020348459788157	-0.36552992140090423													-0.24337521338703508	1.8902260825875037	-0.6367346631452135	-0.24362582287024054	1.7214165882866022	-0.6317339894081502	-0.2420306208379053	1.5661289069255355	-0.6008301393069926	-0.2538420070176252	1.514625464494132	-0.6575124723582759	-0.24216927565417343	1.5221461057032308	-0.6697004892727103	-0.18412138578234377	1.6087663315614742	-0.5207462805266488	-0.2560855184563702	2.061962408906495	-0.5787299377640771	-0.2702805940637585	2.1392431926522155	-0.6325735886475599	-0.28257747693891366	2.05980271345944	-0.48392367700446826	-0.2870587520199557	1.963347446034712	-0.434338579960075	-0.3091106566258496	1.8882929964969457	-0.44687301313462546	-0.2243310927398643	2.0655228676716693	-0.6764066236019055	-1.310506635413014	1.87685306582402	0.416907535219467	-0.22671961415297087	1.9264077036517566	-0.7501322638151899
28	0.9333333333333333	-0.2590108357849936	1.887137523475184	-0.5599773878021569	-0.27748725072625413	1.8829675251104883	-0.49634821799901596	-0.2633389104065227	1.7020348459788157	-0.36552992140090423													-0.24179335019192194	1.8903269742292534	-0.6330593314915273	-0.24580927649280948	1.7257665235178572	-0.637320326773378	-0.2420306208379053	1.5661289069255355	-0.6008301393069926	-0.2523165741621722	1.5145812793419757	-0.6590050356098264	-0.24129590176306198	1.5210464991523418	-0.6744001355145092	-0.18412138578234377	1.6087663315614742	-0.5207462805266488	-0.25604678096122585	2.0619670739710636	-0.5786734272868487	-0.2701678821474662	2.139724681194259	-0.6322514334758317	-0.2805704909838717	2.0598709001465174	-0.4858276134899415	-0.2869663709773153	1.971049083340665	-0.42771132584125165	-0.3148832486842469	1.9054478268977857	-0.4474961440715706	-0.22434904727576652	2.064571016581002	-0.6759137561643328	-1.281040247968805	1.8819048763728832	0.3583692195402705	-0.23226285730045632	1.9544196745101092	-0.7912593993695369
29	0.9666666666666667	-0.25868374652368836	1.88524905275887	-0.5511631786224328	-0.2710990762556064	1.883574172502797	-0.47680446595522114	-0.2633389104065227	1.7020348459788157	-0.36552992140090423													-0.23896256160449564	1.8903515687568757	-0.6150522992756947	-0.2479927301153784	1.7301164587491122	-0.642906664138606	-0.2420306208379053	1.5661289069255355	-0.6008301393069926	-0.2517970139152702	1.5139061434426404	-0.6552360113173816	-0.24168126617505795	1.5198837749639609	-0.6737579159768778	-0.18412138578234377	1.6087663315614742	-0.5207462805266488	-0.25496930317500527	2.065287140020063	-0.5755654428324811	-0.26643743121434277	2.1416516429894132	-0.612715841143674	-0.2771491492454589	2.063929718363584	-0.47665924063430265	-0.28302197932134693	1.972763628922764	-0.42381842241792606	-0.30328855513121666	1.950764213930702	-0.4503021977744208	-0.22767250382556245	2.0669090684852214	-0.6688318367615332	-0.21425164916492406	1.9931490320225749	-0.7560800022449786	-0.23497864770990332	1.9759039987844034	-0.796760220024533
30	1.0	-0.25783755508160777	1.9000226576799422	-0.5498803218611504	-0.2682197312892531	1.8970107710961261	-0.477760017257786	-0.2633389104065227	1.7020348459788157	-0.36552992140090423													-0.23885582190144433	1.9039387370938055	-0.6166902682849195	-0.24595593385902625	1.7373246761786985	-0.6292581784256177	-0.2420306208379053	1.5661289069255355	-0.6008301393069926	-0.25419186174902514	1.5106689162133087	-0.6561248939993548	-0.24293859989441727	1.5185962260162815	-0.6719649341137004	-0.18412138578234377	1.6087663315614742	-0.5207462805266488	-0.2508681100940267	2.0730889553126994	-0.5559100855677036	-0.26370081700331377	2.143186104382008	-0.603882610840902	-0.2709746061680779	2.0702006055325137	-0.459937036425931	-0.2814075368468879	1.9804897112402227	-0.4209806966483744	-0.2916938615781865	1.9960806009636183	-0.4531082514772711	-0.22649230202138226	2.077376000508365	-0.657248618531526	-0.2234256398483406	2.0248623197551265	-0.7535841314481956	-0.23769443811935032	1.9973883230586977	-0.802261040679529
